<?xml version="1.0" encoding="UTF-8"?>
<svg id="_圖層_1" data-name="圖層_1" xmlns="http://www.w3.org/2000/svg" version="1.1" viewBox="0 0 490.5 125.6">
  <!-- Generator: Adobe Illustrator 29.1.0, SVG Export Plug-In . SVG Version: 2.1.0 Build 142)  -->
  <defs>
    <style>
      .st0 {
        fill: #f2f2f2;
      }

      .st1 {
        fill: #fff;
      }

      .st2 {
        fill: #00479d;
      }

      .st3 {
        fill: #ed6c00;
      }
    </style>
  </defs>
  <g>
    <rect class="st2" x="1.9" y="2" width="123" height="122.9"/>
    <g>
      <path class="st1" d="M113.7,66.4c-.4,0-.9.1-1.3.4-1.2.4-2,1.5-2,2.6s.1.8.3,1.2c.6.9.9,2.3.9,3.9,0,12-9.2,31.1-17.5,31.1s-6-5.9-6-11.6,1-12.5,1.8-18.9c.3-2.3.4-4.3.4-4.4,0-1.7-1.5-3-3.4-3s-2.6,1.2-2.8,2.7c-1.6,19.5-11.2,35.4-19.4,35.4s-5.7-4.5-5.7-11.9,0-2.6.1-3.9c15.7-8.1,25.3-26.4,25.3-41.7S74.3,15.7,43.3,15.7,8.8,25.4,8.8,38s6.3,14.4,16.2,16.2c-.5,2.7-1,7.4-1,11.8,0,12.2,1.6,28.2,17.9,28.2s7.2-.6,10.5-1.5c0,.4,0,.8,0,1.2,0,7.7,2.6,17.3,11.8,17.3s14.1-6.1,17.8-14.7c-.1,10.6,6.1,14.6,11.7,14.6,14.4,0,24.2-24.7,24.2-36.7s0-8-4.2-8ZM42.1,89.4c-9.4,0-12-9.4-12-23.3s.4-8.9,1-11.4c16.6-.2,22.5-8.1,22.5-12.8s-1.4-2.7-3-2.7-3,1.1-3.1,2.4c-.3,4.1-5.9,7.7-15.7,8.1,1.2-7.9,2.9-14.9,3.8-18,.1-.2.1-.6.1-.8,0-1.5-1.4-2.7-3-2.7s-2.6.7-2.9,1.9c-1.1,3.4-2.9,10.5-4.2,19.1-5.1-1-10.6-4-10.6-11.2s11-17.3,27.8-17.3c30.6,0,35.6,17,35.6,27.6s-6.9,27-18.5,35.2c.6-4.4,1.6-8.6,2.4-11.6.1-.3.1-.4.1-.6,0-1.7-1.5-3-3.2-3s-2.8.9-3.2,2.3c-1.2,4.1-2.5,10.4-3.1,16.7-3.3,1.3-6.9,2-10.7,2Z"/>
      <path class="st1" d="M69.4,46.5c2.2,0,3.8-1.7,3.8-3.7s-1.7-3.8-3.8-3.8-3.8,1.7-3.8,3.8,1.6,3.7,3.8,3.7Z"/>
    </g>
  </g>
  <path class="st0" d="M210.1,121.9h-6.4v-22.3c2.7-.1,4.7-.2,5.9-.2,2.2,0,3.9.5,5.1,1.4,1.2.9,1.8,2.3,1.8,4.1s-.4,2-1.2,2.8c-.8.9-1.6,1.4-2.6,1.6,1.8.4,3,1.1,3.9,2.1.8,1,1.2,2.3,1.2,4s-.7,3.5-2.2,4.7c-1.4,1.2-3.3,1.7-5.6,1.7ZM206.8,102v6.4c.6,0,1.4,0,2.4,0,2.9,0,4.3-1.2,4.3-3.5s-1.3-3.1-4-3.1-1.9,0-2.7.1ZM206.8,110.8v8.5c1,0,1.8.2,2.4.2,1.9,0,3.3-.4,4.2-1.1.9-.7,1.3-1.9,1.3-3.4s-.4-2.5-1.3-3.2c-.8-.7-2.2-1-4.2-1h-2.4Z"/>
  <path class="st0" d="M234.9,114h-11.7c0,1.9.5,3.4,1.6,4.4.9.9,2.1,1.3,3.6,1.3s3-.5,4.1-1.4l1.2,2.1c-.4.4-1.1.8-2.1,1.2-1.2.4-2.4.6-3.9.6-2,0-3.8-.7-5.2-2.1-1.6-1.5-2.4-3.6-2.4-6.2s.8-4.8,2.4-6.5c1.5-1.4,3.2-2.2,5.2-2.2s4.1.7,5.5,2c1.3,1.3,1.9,2.9,1.9,5s0,1.2-.2,1.8ZM227.9,107.7c-1.3,0-2.4.4-3.2,1.2-.8.8-1.3,1.8-1.4,2.9h9c0-1.2-.4-2.1-1.1-2.9-.8-.9-1.9-1.3-3.3-1.3Z"/>
  <path class="st0" d="M237.1,120.9l1-2.7c1.6,1.1,2.9,1.6,3.9,1.6,1.8,0,2.7-.8,2.7-2.2s-.9-2-2.6-2.8c-1.3-.6-2.2-1.1-2.7-1.4-.5-.3-.9-.7-1.2-1.1-.3-.4-.6-.8-.8-1.3-.2-.5-.2-.9-.2-1.5,0-1.3.5-2.4,1.5-3.1,1-.8,2.2-1.1,3.8-1.1s2.7.4,4.5,1.1l-.8,2.7c-1.1-.9-2.3-1.4-3.5-1.4s-1.3.2-1.7.5c-.5.3-.7.7-.7,1.2,0,1,.6,1.8,1.8,2.4l2.1.9c1.3.6,2.2,1.2,2.8,2,.6.7.9,1.7.9,2.8s-.5,2.6-1.5,3.4c-1,.8-2.4,1.2-4.3,1.2s-3.3-.4-4.8-1.3Z"/>
  <path class="st0" d="M251.8,107.9h-1.9v-2.3h1.9v-3.4l2.9-1.1v4.5h4.5v2.3h-4.5v8.1c0,1.4.2,2.3.7,2.9.5.6,1.2.9,2.2.9s1.5-.2,2.3-.6l.4,2.5c-1.2.3-2.5.5-3.9.5s-2.4-.5-3.3-1.4c-.9-1-1.3-2.2-1.3-3.6v-9.2Z"/>
  <path class="st3" d="M272.7,121.9v-22.3h3v19.5h10.1v2.7h-13.1Z"/>
  <path class="st3" d="M289.6,121.9v-13.8h-2.2v-2.4h5.1v16.3h-2.9ZM291.2,99.4c.5,0,.9.2,1.3.5s.5.8.5,1.3-.2.9-.5,1.3-.8.5-1.3.5-.9-.2-1.3-.5c-.3-.3-.5-.8-.5-1.3s.2-.9.5-1.3c.3-.3.8-.5,1.3-.5Z"/>
  <path class="st3" d="M307.1,121.9v-9.5c0-1.7-.3-2.9-.8-3.6-.5-.7-1.4-1-2.6-1s-1.3.2-2.1.6c-.7.4-1.3.9-1.7,1.5v12.1h-2.9v-16.3h2l.9,2.1c1-1.6,2.5-2.4,4.7-2.4,3.6,0,5.4,2.2,5.4,6.5v10.1h-2.9Z"/>
  <path class="st3" d="M324.6,121.9l-5.1-8.1-2.5,2.6v5.5h-2.9v-23h2.9v14.2l6.2-7.6h3.4l-5.2,6.2,6.4,10.1h-3.1Z"/>
  <path class="st0" d="M342.5,113.3v8.6h-3v-22.3c2.3-.1,3.7-.2,4.2-.2,6.5,0,9.7,2.2,9.7,6.5s-2.9,7.5-8.6,7.5-1.1,0-2.2-.2ZM342.5,102.3v8.2c1.3.1,2,.2,2,.2,3.8,0,5.7-1.5,5.7-4.5s-2-4.1-6-4.1-1,0-1.7.2Z"/>
  <path class="st0" d="M365.8,120c-1.2,1.4-2.9,2.2-5.3,2.2s-2.4-.5-3.3-1.4c-.9-.9-1.4-2.1-1.4-3.5s.7-3,2.2-4.2c1.4-1.1,3.3-1.7,5.5-1.7s1.3.1,2.1.4c0-2.6-1.2-4-3.5-4s-3.2.5-4.2,1.5l-1.2-2.4c.5-.4,1.3-.8,2.3-1.1,1-.3,1.9-.5,2.8-.5,2.4,0,4.1.5,5.1,1.6,1.1,1.1,1.6,2.8,1.6,5.1v5.8c0,1.4.4,2.4,1.3,2.9v1.4c-1.2,0-2.1-.2-2.6-.5-.6-.3-1-.9-1.3-1.7ZM365.5,113.9c-.9-.2-1.6-.3-1.9-.3-1.5,0-2.7.4-3.6,1.1-.9.7-1.4,1.6-1.4,2.7,0,1.7,1,2.5,3,2.5s2.8-.7,3.9-2.1v-3.9Z"/>
  <path class="st0" d="M381.8,108.4c-.6-.4-1.3-.7-1.9-.7-1,0-1.9.5-2.7,1.4-.8.9-1.1,2.1-1.1,3.4v9.3h-2.9v-16.3h2.9v2.6c1.1-1.9,2.6-2.9,4.7-2.9s1.3,0,2.2.3l-1.2,2.8Z"/>
  <path class="st0" d="M386.1,107.9h-1.9v-2.3h1.9v-3.4l2.9-1.1v4.5h4.5v2.3h-4.5v8.1c0,1.4.2,2.3.7,2.9.5.6,1.2.9,2.2.9s1.5-.2,2.3-.6l.4,2.5c-1.2.3-2.5.5-3.9.5s-2.4-.5-3.3-1.4-1.3-2.2-1.3-3.6v-9.2Z"/>
  <path class="st0" d="M407.4,121.9v-9.5c0-1.7-.3-2.9-.8-3.6-.5-.7-1.4-1-2.6-1s-1.3.2-2.1.6c-.7.4-1.3.9-1.7,1.5v12.1h-2.9v-16.3h2l.9,2.1c1-1.6,2.5-2.4,4.7-2.4,3.6,0,5.4,2.2,5.4,6.5v10.1h-2.9Z"/>
  <path class="st0" d="M428.1,114h-11.7c0,1.9.5,3.4,1.6,4.4.9.9,2.1,1.3,3.6,1.3s3-.5,4.1-1.4l1.2,2.1c-.4.4-1.1.8-2.1,1.2-1.2.4-2.4.6-3.9.6-2,0-3.8-.7-5.2-2.1-1.6-1.5-2.4-3.6-2.4-6.2s.8-4.8,2.4-6.5c1.5-1.4,3.2-2.2,5.2-2.2s4.1.7,5.5,2c1.3,1.3,1.9,2.9,1.9,5s0,1.2-.2,1.8ZM421.1,107.7c-1.3,0-2.4.4-3.2,1.2-.8.8-1.3,1.8-1.4,2.9h9c0-1.2-.4-2.1-1.1-2.9-.8-.9-1.9-1.3-3.3-1.3Z"/>
  <path class="st0" d="M440.2,108.4c-.6-.4-1.3-.7-1.9-.7-1,0-1.9.5-2.7,1.4-.8.9-1.1,2.1-1.1,3.4v9.3h-2.9v-16.3h2.9v2.6c1.1-1.9,2.6-2.9,4.7-2.9s1.3,0,2.2.3l-1.2,2.8Z"/>
  <g>
    <path class="st1" d="M166.4,83.4h-14.7V10.5c9.4-.3,15.3-.5,18-.5,10.2,0,18.2,3.1,24.2,9.3,5.9,6.2,8.9,14.4,8.9,24.7,0,26.3-12.1,39.4-36.4,39.4ZM161.6,19.4v54.5c2.2.3,5,.5,8.3.5,7,0,12.4-2.6,16.4-7.8,4-5.2,6-12.5,6-21.8,0-17.2-7.7-25.9-23.2-25.9s-3.4.2-7.4.5Z"/>
    <path class="st1" d="M239.6,77.3c-3.8,4.7-9.6,7.1-17.4,7.1s-7.8-1.5-10.9-4.6c-3.1-3-4.6-6.8-4.6-11.3s2.4-10,7.1-13.7c4.7-3.7,10.8-5.6,18.1-5.6s4.2.4,6.8,1.3c0-8.6-3.8-12.9-11.5-12.9s-10.4,1.6-13.6,4.8l-4-7.9c1.8-1.5,4.3-2.7,7.4-3.8,3.2-1,6.2-1.6,9.1-1.6,7.7,0,13.3,1.8,16.8,5.3,3.5,3.5,5.2,9.1,5.2,16.8v19.1c0,4.7,1.4,7.8,4.2,9.4v4.7c-3.8,0-6.7-.5-8.6-1.6-1.9-1.1-3.3-2.9-4.1-5.4ZM238.7,57.2c-3-.7-5.1-1-6.3-1-4.8,0-8.7,1.2-11.7,3.7-3,2.5-4.5,5.4-4.5,8.7,0,5.5,3.3,8.3,9.8,8.3s9-2.3,12.7-6.8v-12.9Z"/>
    <path class="st1" d="M286.9,39.2c-2.1-1.4-4.1-2.1-6.2-2.1-3.4,0-6.3,1.5-8.8,4.6-2.5,3.1-3.8,6.8-3.8,11.1v30.5h-9.5V30.1h9.5v8.5c3.4-6.3,8.6-9.5,15.4-9.5s4.1.3,7.3.9l-3.9,9.2Z"/>
    <path class="st1" d="M348.7,84.4h-2.5l-15.6-36.3-15.6,36.3h-2.5l-19.1-54.4h10.1l11.4,35,14.2-35h2.5l14.6,35,12.2-35h9.3l-19.1,54.4Z"/>
    <path class="st1" d="M378.5,83.4v-45.3h-7.3v-8h16.8v53.3h-9.5ZM383.6,9.9c1.6,0,3,.6,4.2,1.7,1.1,1.1,1.7,2.5,1.7,4.1s-.6,3-1.7,4.2c-1.1,1.1-2.5,1.7-4.2,1.7s-3-.6-4.1-1.7c-1.1-1.1-1.7-2.5-1.7-4.2s.6-3,1.7-4.1c1.1-1.1,2.5-1.7,4.1-1.7Z"/>
    <path class="st1" d="M429.2,83.4v-31c0-5.7-.9-9.6-2.6-11.9-1.7-2.3-4.6-3.4-8.6-3.4s-4.4.6-6.8,1.9c-2.4,1.3-4.2,2.9-5.4,4.8v39.6h-9.5V30.1h6.5l3,6.9c3.1-5.2,8.2-7.9,15.3-7.9,11.7,0,17.5,7.1,17.5,21.3v33h-9.5Z"/>
    <path class="st1" d="M460,74.9h29.6v8.5h-44.4v-2.5l30.3-42.3h-29.8v-8.5h43.6v2.7l-29.3,42.1Z"/>
  </g>
</svg>